<svg xmlns="http://www.w3.org/2000/svg" xmlns:xlink="http://www.w3.org/1999/xlink" contentStyleType="text/css" data-diagram-type="SEQUENCE" height="862px" preserveAspectRatio="none" style="width:877px;height:862px;background:#FFFFFF;" version="1.1" viewBox="0 0 877 862" width="877px" zoomAndPan="magnify"><title>US-01 Input Data: InputHandler.input_data()</title><defs/><g><text fill="#000000" font-family="sans-serif" font-size="14" font-weight="bold" lengthAdjust="spacing" textLength="352.4063" x="263.7883" y="27.9951">US-01 Input Data: InputHandler.input_data()</text><g><title>.u.ih.InputHandler..u.</title><rect fill="#FFFFFF" height="250.8672" style="stroke:#181818;stroke-width:1;" width="10" x="382.0947" y="149.7266"/></g><g><title>Filesystem</title><rect fill="#FFFFFF" height="29.1328" style="stroke:#181818;stroke-width:1;" width="10" x="690.8354" y="245.125"/></g><g><title>Pandas IO</title><rect fill="#FFFFFF" height="29.1328" style="stroke:#181818;stroke-width:1;" width="10" x="803.8564" y="327.5234"/></g><rect fill="none" height="307.8047" style="stroke:#000000;stroke-width:1.5;" width="860.9829" x="10" y="206.8594"/><rect fill="none" height="119.3359" style="stroke:#000000;stroke-width:1.5;" width="840.9829" x="20" y="289.2578"/><g><title>Developer</title><rect fill="#000000" fill-opacity="0.00000" height="737.1328" width="8" x="65.0015" y="118.5938"/><line style="stroke:#181818;stroke-width:0.5;stroke-dasharray:5,5;" x1="69" x2="69" y1="118.5938" y2="855.7266"/></g><g><title>.u.ih.InputHandler..u.</title><rect fill="#000000" fill-opacity="0.00000" height="737.1328" width="8" x="383.0947" y="118.5938"/><line style="stroke:#181818;stroke-width:0.5;stroke-dasharray:5,5;" x1="386.667" x2="386.667" y1="118.5938" y2="855.7266"/></g><g><title>Filesystem</title><rect fill="#000000" fill-opacity="0.00000" height="737.1328" width="8" x="691.8354" y="118.5938"/><line style="stroke:#181818;stroke-width:0.5;stroke-dasharray:5,5;" x1="694.9409" x2="694.9409" y1="118.5938" y2="855.7266"/></g><g><title>Pandas IO</title><rect fill="#000000" fill-opacity="0.00000" height="737.1328" width="8" x="804.8564" y="118.5938"/><line style="stroke:#181818;stroke-width:0.5;stroke-dasharray:5,5;" x1="808.73" x2="808.73" y1="118.5938" y2="855.7266"/></g><g class="participant participant-head" data-participant="Developer"><text fill="#000000" font-family="sans-serif" font-size="14" lengthAdjust="spacing" textLength="72.0029" x="30" y="115.292">Developer</text><ellipse cx="69.0015" cy="50.7969" fill="#E2E2F0" rx="8" ry="8" style="stroke:#181818;stroke-width:0.5;"/><path d="M69.0015,58.7969 L69.0015,85.7969 M56.0015,66.7969 L82.0015,66.7969 M69.0015,85.7969 L56.0015,100.7969 M69.0015,85.7969 L82.0015,100.7969" fill="none" style="stroke:#181818;stroke-width:0.5;"/></g><g class="participant participant-head" data-participant="IH"><rect fill="#E2E2F0" height="30.2969" rx="2.5" ry="2.5" style="stroke:#181818;stroke-width:0.5;" width="122.8555" x="325.667" y="87.2969"/><text fill="#000000" font-family="sans-serif" font-size="14" lengthAdjust="spacing" text-decoration="underline" textLength="108.8555" x="332.667" y="107.292">ih:InputHandler</text></g><g class="participant participant-head" data-participant="FS"><rect fill="#E2E2F0" height="46.5938" rx="2.5" ry="2.5" style="stroke:#181818;stroke-width:0.5;" width="121.7891" x="634.9409" y="71"/><text fill="#000000" font-family="sans-serif" font-size="14" lengthAdjust="spacing" textLength="75.0586" x="658.3062" y="90.9951">Filesystem</text><text fill="#000000" font-family="sans-serif" font-size="14" lengthAdjust="spacing" textLength="107.7891" x="641.9409" y="107.292">&lt;pathlib.Path&gt;</text></g><g class="participant participant-head" data-participant="PD"><rect fill="#E2E2F0" height="30.2969" rx="2.5" ry="2.5" style="stroke:#181818;stroke-width:0.5;" width="84.2529" x="766.73" y="87.2969"/><text fill="#000000" font-family="sans-serif" font-size="14" lengthAdjust="spacing" textLength="70.2529" x="773.73" y="107.292">Pandas IO</text></g><g><title>.u.ih.InputHandler..u.</title><rect fill="#FFFFFF" height="250.8672" style="stroke:#181818;stroke-width:1;" width="10" x="382.0947" y="149.7266"/></g><g><title>Filesystem</title><rect fill="#FFFFFF" height="29.1328" style="stroke:#181818;stroke-width:1;" width="10" x="690.8354" y="245.125"/></g><g><title>Pandas IO</title><rect fill="#FFFFFF" height="29.1328" style="stroke:#181818;stroke-width:1;" width="10" x="803.8564" y="327.5234"/></g><g class="message" data-participant-1="Developer" data-participant-2="IH"><polygon fill="#181818" points="370.0947,145.7266,380.0947,149.7266,370.0947,153.7266" style="stroke:#181818;stroke-width:1;"/><line style="stroke:#181818;stroke-width:1;" x1="69.0015" x2="376.0947" y1="149.7266" y2="149.7266"/><text fill="#000000" font-family="sans-serif" font-size="13" lengthAdjust="spacing" textLength="294.0933" x="78.5015" y="144.6606">input_data(input_source, required_columns?)</text></g><g class="message" data-participant-1="IH" data-participant-2="IH"><line style="stroke:#181818;stroke-width:1;" x1="392.0947" x2="434.0947" y1="178.8594" y2="178.8594"/><line style="stroke:#181818;stroke-width:1;" x1="434.0947" x2="434.0947" y1="178.8594" y2="191.8594"/><line style="stroke:#181818;stroke-width:1;" x1="393.0947" x2="434.0947" y1="191.8594" y2="191.8594"/><polygon fill="#181818" points="403.0947,187.8594,393.0947,191.8594,403.0947,195.8594" style="stroke:#181818;stroke-width:1;"/><text fill="#000000" font-family="sans-serif" font-size="13" lengthAdjust="spacing" textLength="172.7769" x="399.0947" y="173.7935">_is_file_path(input_source)</text></g><path d="M10,206.8594 L74.4429,206.8594 L74.4429,213.9922 L64.4429,223.9922 L10,223.9922 L10,206.8594" fill="#EEEEEE" style="stroke:#000000;stroke-width:1.5;"/><rect fill="none" height="307.8047" style="stroke:#000000;stroke-width:1.5;" width="860.9829" x="10" y="206.8594"/><text fill="#000000" font-family="sans-serif" font-size="13" font-weight="bold" lengthAdjust="spacing" textLength="19.4429" x="25" y="219.9263">alt</text><text fill="#000000" font-family="sans-serif" font-size="11" font-weight="bold" lengthAdjust="spacing" textLength="226.9717" x="89.4429" y="219.0698">[input_source is supported file path]</text><g class="message" data-participant-1="IH" data-participant-2="FS"><polygon fill="#181818" points="678.8354,241.125,688.8354,245.125,678.8354,249.125" style="stroke:#181818;stroke-width:1;"/><line style="stroke:#181818;stroke-width:1;" x1="392.0947" x2="684.8354" y1="245.125" y2="245.125"/><text fill="#000000" font-family="sans-serif" font-size="13" lengthAdjust="spacing" textLength="127.6387" x="477.6458" y="240.0591">exists() and is_file()</text></g><g class="message" data-participant-1="FS" data-participant-2="IH"><polygon fill="#181818" points="403.0947,270.2578,393.0947,274.2578,403.0947,278.2578" style="stroke:#181818;stroke-width:1;"/><line style="stroke:#181818;stroke-width:1;stroke-dasharray:2,2;" x1="397.0947" x2="694.8354" y1="274.2578" y2="274.2578"/><text fill="#000000" font-family="sans-serif" font-size="13" lengthAdjust="spacing" textLength="61.9849" x="512.9727" y="269.1919">true/false</text></g><path d="M20,289.2578 L84.4429,289.2578 L84.4429,296.3906 L74.4429,306.3906 L20,306.3906 L20,289.2578" fill="#EEEEEE" style="stroke:#000000;stroke-width:1.5;"/><rect fill="none" height="119.3359" style="stroke:#000000;stroke-width:1.5;" width="840.9829" x="20" y="289.2578"/><text fill="#000000" font-family="sans-serif" font-size="13" font-weight="bold" lengthAdjust="spacing" textLength="19.4429" x="35" y="302.3247">alt</text><text fill="#000000" font-family="sans-serif" font-size="11" font-weight="bold" lengthAdjust="spacing" textLength="70.3506" x="99.4429" y="301.4683">[file exists]</text><g class="message" data-participant-1="IH" data-participant-2="PD"><polygon fill="#181818" points="791.8564,323.5234,801.8564,327.5234,791.8564,331.5234" style="stroke:#181818;stroke-width:1;"/><line style="stroke:#181818;stroke-width:1;" x1="392.0947" x2="797.8564" y1="327.5234" y2="327.5234"/><text fill="#000000" font-family="sans-serif" font-size="13" lengthAdjust="spacing" textLength="357.5" x="419.2256" y="322.4575">read_csv/read_json/read_excel/read_parquet/read_text</text></g><g class="message" data-participant-1="PD" data-participant-2="IH"><polygon fill="#181818" points="403.0947,352.6563,393.0947,356.6563,403.0947,360.6563" style="stroke:#181818;stroke-width:1;"/><line style="stroke:#181818;stroke-width:1;stroke-dasharray:2,2;" x1="397.0947" x2="807.8564" y1="356.6563" y2="356.6563"/><text fill="#000000" font-family="sans-serif" font-size="13" lengthAdjust="spacing" textLength="12.8286" x="594.0613" y="351.5903">df</text></g><line style="stroke:#000000;stroke-width:1;stroke-dasharray:2,2;" x1="20" x2="860.9829" y1="365.6563" y2="365.6563"/><text fill="#000000" font-family="sans-serif" font-size="11" font-weight="bold" lengthAdjust="spacing" textLength="121.5479" x="25" y="375.8667">[file does not exist]</text><g class="message" data-participant-1="IH" data-participant-2="Developer"><polygon fill="#181818" points="80.0015,396.5938,70.0015,400.5938,80.0015,404.5938" style="stroke:#181818;stroke-width:1;"/><line style="stroke:#181818;stroke-width:1;stroke-dasharray:2,2;" x1="74.0015" x2="386.0947" y1="400.5938" y2="400.5938"/><text fill="#000000" font-family="sans-serif" font-size="13" lengthAdjust="spacing" textLength="153.6641" x="151.2161" y="395.5278">raise FileNotFoundError</text></g><line style="stroke:#000000;stroke-width:1;stroke-dasharray:2,2;" x1="10" x2="870.9829" y1="416.5938" y2="416.5938"/><text fill="#000000" font-family="sans-serif" font-size="11" font-weight="bold" lengthAdjust="spacing" textLength="129.6797" x="15" y="426.8042">[in-memory payload]</text><g class="message" data-participant-1="IH" data-participant-2="IH"><line style="stroke:#181818;stroke-width:1;" x1="387.0947" x2="429.0947" y1="451.5313" y2="451.5313"/><line style="stroke:#181818;stroke-width:1;" x1="429.0947" x2="429.0947" y1="451.5313" y2="464.5313"/><line style="stroke:#181818;stroke-width:1;" x1="388.0947" x2="429.0947" y1="464.5313" y2="464.5313"/><polygon fill="#181818" points="398.0947,460.5313,388.0947,464.5313,398.0947,468.5313" style="stroke:#181818;stroke-width:1;"/><text fill="#000000" font-family="sans-serif" font-size="13" lengthAdjust="spacing" textLength="294.7407" x="394.0947" y="446.4653">_coerce_non_file_to_dataframe(input_source)</text></g><g class="message" data-participant-1="IH" data-participant-2="IH"><line style="stroke:#181818;stroke-width:1;stroke-dasharray:2,2;" x1="387.0947" x2="429.0947" y1="493.6641" y2="493.6641"/><line style="stroke:#181818;stroke-width:1;stroke-dasharray:2,2;" x1="429.0947" x2="429.0947" y1="493.6641" y2="506.6641"/><line style="stroke:#181818;stroke-width:1;stroke-dasharray:2,2;" x1="388.0947" x2="429.0947" y1="506.6641" y2="506.6641"/><polygon fill="#181818" points="398.0947,502.6641,388.0947,506.6641,398.0947,510.6641" style="stroke:#181818;stroke-width:1;"/><text fill="#000000" font-family="sans-serif" font-size="13" lengthAdjust="spacing" textLength="12.8286" x="394.0947" y="488.5981">df</text></g><g class="message" data-participant-1="IH" data-participant-2="IH"><line style="stroke:#181818;stroke-width:1;" x1="387.0947" x2="429.0947" y1="542.7969" y2="542.7969"/><line style="stroke:#181818;stroke-width:1;" x1="429.0947" x2="429.0947" y1="542.7969" y2="555.7969"/><line style="stroke:#181818;stroke-width:1;" x1="388.0947" x2="429.0947" y1="555.7969" y2="555.7969"/><polygon fill="#181818" points="398.0947,551.7969,388.0947,555.7969,398.0947,559.7969" style="stroke:#181818;stroke-width:1;"/><text fill="#000000" font-family="sans-serif" font-size="13" lengthAdjust="spacing" textLength="278.478" x="394.0947" y="537.731">_process_dataframe(df, required_columns)</text></g><g class="message" data-participant-1="IH" data-participant-2="IH"><line style="stroke:#181818;stroke-width:1;" x1="387.0947" x2="429.0947" y1="584.9297" y2="584.9297"/><line style="stroke:#181818;stroke-width:1;" x1="429.0947" x2="429.0947" y1="584.9297" y2="597.9297"/><line style="stroke:#181818;stroke-width:1;" x1="388.0947" x2="429.0947" y1="597.9297" y2="597.9297"/><polygon fill="#181818" points="398.0947,593.9297,388.0947,597.9297,398.0947,601.9297" style="stroke:#181818;stroke-width:1;"/><text fill="#000000" font-family="sans-serif" font-size="13" lengthAdjust="spacing" textLength="219.9971" x="394.0947" y="579.8638">_normalize_datetime_columns(df)</text></g><g class="message" data-participant-1="IH" data-participant-2="IH"><line style="stroke:#181818;stroke-width:1;" x1="387.0947" x2="429.0947" y1="627.0625" y2="627.0625"/><line style="stroke:#181818;stroke-width:1;" x1="429.0947" x2="429.0947" y1="627.0625" y2="640.0625"/><line style="stroke:#181818;stroke-width:1;" x1="388.0947" x2="429.0947" y1="640.0625" y2="640.0625"/><polygon fill="#181818" points="398.0947,636.0625,388.0947,640.0625,398.0947,644.0625" style="stroke:#181818;stroke-width:1;"/><text fill="#000000" font-family="sans-serif" font-size="13" lengthAdjust="spacing" textLength="190.3535" x="394.0947" y="621.9966">_normalize_column_types(df)</text></g><g class="message" data-participant-1="IH" data-participant-2="IH"><line style="stroke:#181818;stroke-width:1;" x1="387.0947" x2="429.0947" y1="669.1953" y2="669.1953"/><line style="stroke:#181818;stroke-width:1;" x1="429.0947" x2="429.0947" y1="669.1953" y2="682.1953"/><line style="stroke:#181818;stroke-width:1;" x1="388.0947" x2="429.0947" y1="682.1953" y2="682.1953"/><polygon fill="#181818" points="398.0947,678.1953,388.0947,682.1953,398.0947,686.1953" style="stroke:#181818;stroke-width:1;"/><text fill="#000000" font-family="sans-serif" font-size="13" lengthAdjust="spacing" textLength="150.0903" x="394.0947" y="664.1294">_fill_missing_values(df)</text></g><g class="message" data-participant-1="IH" data-participant-2="IH"><line style="stroke:#181818;stroke-width:1;" x1="387.0947" x2="429.0947" y1="711.3281" y2="711.3281"/><line style="stroke:#181818;stroke-width:1;" x1="429.0947" x2="429.0947" y1="711.3281" y2="724.3281"/><line style="stroke:#181818;stroke-width:1;" x1="388.0947" x2="429.0947" y1="724.3281" y2="724.3281"/><polygon fill="#181818" points="398.0947,720.3281,388.0947,724.3281,398.0947,728.3281" style="stroke:#181818;stroke-width:1;"/><text fill="#000000" font-family="sans-serif" font-size="13" lengthAdjust="spacing" textLength="278.04" x="394.0947" y="706.2622">_detect_repeating_values(df, threshold=3)</text></g><g class="message" data-participant-1="IH" data-participant-2="IH"><line style="stroke:#181818;stroke-width:1;" x1="387.0947" x2="429.0947" y1="753.4609" y2="753.4609"/><line style="stroke:#181818;stroke-width:1;" x1="429.0947" x2="429.0947" y1="753.4609" y2="766.4609"/><line style="stroke:#181818;stroke-width:1;" x1="388.0947" x2="429.0947" y1="766.4609" y2="766.4609"/><polygon fill="#181818" points="398.0947,762.4609,388.0947,766.4609,398.0947,770.4609" style="stroke:#181818;stroke-width:1;"/><text fill="#000000" font-family="sans-serif" font-size="13" lengthAdjust="spacing" textLength="208.2031" x="394.0947" y="748.395">self._columns = list(df.columns)</text></g><g class="message" data-participant-1="IH" data-participant-2="IH"><line style="stroke:#181818;stroke-width:1;" x1="387.0947" x2="429.0947" y1="795.5938" y2="795.5938"/><line style="stroke:#181818;stroke-width:1;" x1="429.0947" x2="429.0947" y1="795.5938" y2="808.5938"/><line style="stroke:#181818;stroke-width:1;" x1="388.0947" x2="429.0947" y1="808.5938" y2="808.5938"/><polygon fill="#181818" points="398.0947,804.5938,388.0947,808.5938,398.0947,812.5938" style="stroke:#181818;stroke-width:1;"/><text fill="#000000" font-family="sans-serif" font-size="13" lengthAdjust="spacing" textLength="262.7041" x="394.0947" y="790.5278">self._data = df.to_dict(orient="records")</text></g><g class="message" data-participant-1="IH" data-participant-2="Developer"><polygon fill="#181818" points="80.0015,833.7266,70.0015,837.7266,80.0015,841.7266" style="stroke:#181818;stroke-width:1;"/><line style="stroke:#181818;stroke-width:1;stroke-dasharray:2,2;" x1="74.0015" x2="386.0947" y1="837.7266" y2="837.7266"/><text fill="#000000" font-family="sans-serif" font-size="13" lengthAdjust="spacing" textLength="121.4053" x="167.3455" y="832.6606">list[dict[Any, Any]]</text></g><!--SRC=[TLHDRzim3BtxLn0vDK2JRDWjQ3Dqo8Bsi2r0i5DR69f59zfaoHNfDDwl7sKrdjrk5raVZu-FV9Bfbt6r2ge2ujQYZC4Kt5Gsexyd-DIWA_0B4gaztbYpTr2WOmm3L42glQCpwXDQ_tmJWdy63WrcR5Zel-zcxzx3dQiRXhLYjKppM-MqnJ0tSP5hERYOPfags0TOur6eQiabUTWKfbQEONBLhCnXEOo-MZIh2IY2kzinT6CiKakCrOExgXKVhFantyetmJUxCNmhT97bMtUwNMTPBm5cAs5Vma1dcf9lGe6NqeIdnWJKUU5jKpdwE8rLcADYZBBkRiyCkQ6y55rvr3CYYOLRXk4M609gwje7HWqn369O1f08DxibuCaGqyKKH3sya4iJ0VhyKYV80BCN2T6MHQaieUnh7E9Yc6ZeCYLYsJbdswwNKgUI6kcuw2O_oRiqmrE1Dasbft9jE2qOJznHz5caht6zNVTwTDdj39Hq61I1IOdsIE0y9qcz8Wdl3H9boWW-MlxLyyOtJd-MInXUKuiPGkrqrj4RDwkmyg6LlhRMAzstjlEgy2WkvCwxv1dxpljIhZs-ygwNz59HJ36qlGw-a0SoYDVbssip7OOu7ofbpM-CGSYcmZDCOl-3J82SsnhVeAG4crU6oBXzVbIsUGlHo5Xm7h16nIFO9V11Nlh1MttzOHX3QClvMHXSWnMB13__HqK96ZiWE874TifFvy878p-Lwqd0mWTDanGpjZVItaVq_OrhBq66nyTivEiV]--></g></svg>
